<svg xmlns="http://www.w3.org/2000/svg" version="1.1" xmlns:xlink="http://www.w3.org/1999/xlink" xmlns:svgjs="http://svgjs.dev/svgjs" viewBox="0 0 800 800"><defs><linearGradient x1="50%" y1="0%" x2="50%" y2="100%" id="nnneon-grad"><stop stop-color="hsl(178, 100%, 54%)" stop-opacity="1" offset="0%"></stop><stop stop-color="hsl(230, 87%, 61%)" stop-opacity="1" offset="100%"></stop></linearGradient><filter id="nnneon-filter" x="-100%" y="-100%" width="400%" height="400%" filterUnits="objectBoundingBox" primitiveUnits="userSpaceOnUse" color-interpolation-filters="sRGB">
	<feGaussianBlur stdDeviation="20 39" x="0%" y="0%" width="100%" height="100%" in="SourceGraphic" edgeMode="none" result="blur"></feGaussianBlur></filter><filter id="nnneon-filter2" x="-100%" y="-100%" width="400%" height="400%" filterUnits="objectBoundingBox" primitiveUnits="userSpaceOnUse" color-interpolation-filters="sRGB">
	<feGaussianBlur stdDeviation="38 37" x="0%" y="0%" width="100%" height="100%" in="SourceGraphic" edgeMode="none" result="blur"></feGaussianBlur></filter></defs><g stroke-width="30.5" stroke="url(#nnneon-grad)" fill="none"><path d="M386.1051228958436 199.59833827465758C394.70327284789556 194.6350881730529 405.29672715210444 194.6350881730529 413.8948771041564 199.599727762368L566.605134429677 287.7668914513717C575.2032843817292 292.73014155297636 580.5000115338335 301.90492890485086 580.5000115338335 311.8328185957707V488.167145973778C580.5000115338335 498.0950356646979 575.2032843817292 507.26982301657233 566.605134429677 512.2344626058873L413.8948771041564 600.401626294891C405.29672715210444 605.3648763964957 394.70327284789556 605.3648763964957 386.1051228958436 600.4002368071807L233.3948655703229 512.233073118177C224.79671561827092 507.26982301657233 219.49998846616649 498.0950356646979 219.49998846616649 488.167145973778V311.8328185957707C219.49998846616649 301.90492890485086 224.79671561827092 292.73014155297636 233.3948655703229 287.76550196366134L386.1051228958436 199.59833827465758Z " filter="url(#nnneon-filter)"></path><path d="M450.1051228958436 199.59833827465758C458.70327284789556 194.6350881730529 469.29672715210444 194.6350881730529 477.8948771041564 199.599727762368L630.605134429677 287.7668914513717C639.2032843817292 292.73014155297636 644.5000115338335 301.90492890485086 644.5000115338335 311.8328185957707V488.167145973778C644.5000115338335 498.0950356646979 639.2032843817292 507.26982301657233 630.605134429677 512.2344626058873L477.8948771041564 600.401626294891C469.29672715210444 605.3648763964957 458.70327284789556 605.3648763964957 450.1051228958436 600.4002368071807L297.3948655703229 512.233073118177C288.7967156182709 507.26982301657233 283.4999884661665 498.0950356646979 283.4999884661665 488.167145973778V311.8328185957707C283.4999884661665 301.90492890485086 288.7967156182709 292.73014155297636 297.3948655703229 287.76550196366134L450.1051228958436 199.59833827465758Z " filter="url(#nnneon-filter2)" opacity="0.34"></path><path d="M322.1051228958436 199.59833827465758C330.70327284789556 194.6350881730529 341.29672715210444 194.6350881730529 349.8948771041564 199.599727762368L502.60513442967704 287.7668914513717C511.2032843817292 292.73014155297636 516.5000115338335 301.90492890485086 516.5000115338335 311.8328185957707V488.167145973778C516.5000115338335 498.0950356646979 511.2032843817292 507.26982301657233 502.60513442967704 512.2344626058873L349.8948771041564 600.401626294891C341.29672715210444 605.3648763964957 330.70327284789556 605.3648763964957 322.1051228958436 600.4002368071807L169.3948655703229 512.233073118177C160.79671561827092 507.26982301657233 155.49998846616649 498.0950356646979 155.49998846616649 488.167145973778V311.8328185957707C155.49998846616649 301.90492890485086 160.79671561827092 292.73014155297636 169.3948655703229 287.76550196366134L322.1051228958436 199.59833827465758Z " filter="url(#nnneon-filter2)" opacity="0.34"></path><path d="M386.1051228958436 199.59833827465758C394.70327284789556 194.6350881730529 405.29672715210444 194.6350881730529 413.8948771041564 199.599727762368L566.605134429677 287.7668914513717C575.2032843817292 292.73014155297636 580.5000115338335 301.90492890485086 580.5000115338335 311.8328185957707V488.167145973778C580.5000115338335 498.0950356646979 575.2032843817292 507.26982301657233 566.605134429677 512.2344626058873L413.8948771041564 600.401626294891C405.29672715210444 605.3648763964957 394.70327284789556 605.3648763964957 386.1051228958436 600.4002368071807L233.3948655703229 512.233073118177C224.79671561827092 507.26982301657233 219.49998846616649 498.0950356646979 219.49998846616649 488.167145973778V311.8328185957707C219.49998846616649 301.90492890485086 224.79671561827092 292.73014155297636 233.3948655703229 287.76550196366134L386.1051228958436 199.59833827465758Z "></path></g></svg>